<?xml version="1.0"?>
<svg version="1.1" xmlns="http://www.w3.org/2000/svg" width="400px" height="200px" style=""><path fill="#f20a4f" d="M131.176,122.128l10.944-29.568l4.8-0.24l10.656,29.808l3.984,0.912l0,2.88l-13.92,0l0-2.88l4.464-0.912l-1.824-5.328l-12.48,0l-1.872,5.328l4.512,0.912l0,2.88l-13.2,0l0-2.88z M148.984,112.96l-4.848-14.448l-5.04,14.448l9.888,0z M191.9728,126.16l-24.48-11.28l0-3.36l24.48-11.04l0,4.08l-19.2,8.64l19.2,8.88l0,4.08z M220.5136,92.32l-15.888,33.6l-5.04,0l15.888-33.6l5.04,0z M227.6464,104.56l0-4.08l24.48,11.04l0,3.36l-24.48,11.28l0-4.08l19.2-8.88z"/><path fill="#" d=""/></svg>
